<svg xmlns="http://www.w3.org/2000/svg" viewBox="0 0 632 632" role="img" aria-labelledby="title">
  <title id="title">Logo SENA</title>
  <path fill="#31a800" d="M319 7a65 65 0 1 1 0 130 65 65 0 0 1 0-130ZM103 157c44 0 56 11 56 27h-36c-1-8-11-11-26-11-13 0-21 3-21 8 0 7 13 9 31 12 27 4 58 9 58 35 0 24-24 32-62 32-40 0-62-11-62-35h37c1 12 14 16 29 16 14 0 23-3 23-10 0-8-13-10-31-13-26-4-57-9-57-34 0-18 20-27 61-27Zm77 2h101v25h-64v18h61v25h-61v31h-37V159Zm123 0h40l61 61v-61h36v99h-39l-62-62v62h-36V159Zm202 0h39l57 99h-42l-9-17h-54l-9 17h-40l58-99Zm5 59h28l-14-27-14 27ZM15 266h278L127 548l-34-30 99-175c17-30 4-31-20-31H15v-46Zm326 0h276v46H460c-24 0-37 1-20 31l99 175-36 30L341 266ZM315 345l154 228-42 20-99-170c-7-11-18-11-25 0l-99 170-40-20 151-228Z"/>
</svg>
